<mxfile host="app.diagrams.net" modified="2023-08-20T17:42:26.408Z" agent="Mozilla/5.0 (Macintosh; Intel Mac OS X 10_15_7) AppleWebKit/537.36 (KHTML, like Gecko) Chrome/116.0.0.0 Safari/537.36" etag="p5yX0AEeLEN7851I_Mvt" version="21.6.8" type="device">
  <diagram name="PÃ¡gina-1" id="GXbekpkziG94h9vYZ3bh">
    <mxGraphModel dx="2897" dy="1220" grid="1" gridSize="10" guides="1" tooltips="1" connect="1" arrows="1" fold="1" page="1" pageScale="1" pageWidth="827" pageHeight="1169" math="0" shadow="0">
      <root>
        <mxCell id="0" />
        <mxCell id="1" parent="0" />
        <mxCell id="FMWow-dNWHKe_pAuNeEp-25" style="edgeStyle=orthogonalEdgeStyle;rounded=0;orthogonalLoop=1;jettySize=auto;html=1;" edge="1" parent="1" source="FMWow-dNWHKe_pAuNeEp-1" target="FMWow-dNWHKe_pAuNeEp-4">
          <mxGeometry relative="1" as="geometry" />
        </mxCell>
        <mxCell id="FMWow-dNWHKe_pAuNeEp-46" value="EventBridge triggers Workflow" style="edgeLabel;html=1;align=center;verticalAlign=middle;resizable=0;points=[];" vertex="1" connectable="0" parent="FMWow-dNWHKe_pAuNeEp-25">
          <mxGeometry x="0.0953" y="1" relative="1" as="geometry">
            <mxPoint as="offset" />
          </mxGeometry>
        </mxCell>
        <mxCell id="FMWow-dNWHKe_pAuNeEp-1" value="" style="sketch=0;points=[[0,0,0],[0.25,0,0],[0.5,0,0],[0.75,0,0],[1,0,0],[0,1,0],[0.25,1,0],[0.5,1,0],[0.75,1,0],[1,1,0],[0,0.25,0],[0,0.5,0],[0,0.75,0],[1,0.25,0],[1,0.5,0],[1,0.75,0]];outlineConnect=0;fontColor=#232F3E;gradientColor=#FF4F8B;gradientDirection=north;fillColor=#BC1356;strokeColor=#ffffff;dashed=0;verticalLabelPosition=bottom;verticalAlign=top;align=center;html=1;fontSize=12;fontStyle=0;aspect=fixed;shape=mxgraph.aws4.resourceIcon;resIcon=mxgraph.aws4.eventbridge;" vertex="1" parent="1">
          <mxGeometry x="368" y="210" width="78" height="78" as="geometry" />
        </mxCell>
        <mxCell id="FMWow-dNWHKe_pAuNeEp-24" style="edgeStyle=orthogonalEdgeStyle;rounded=0;orthogonalLoop=1;jettySize=auto;html=1;entryX=0.5;entryY=0;entryDx=0;entryDy=0;entryPerimeter=0;" edge="1" parent="1" source="FMWow-dNWHKe_pAuNeEp-2" target="FMWow-dNWHKe_pAuNeEp-1">
          <mxGeometry relative="1" as="geometry" />
        </mxCell>
        <mxCell id="FMWow-dNWHKe_pAuNeEp-45" value="Triggers EventBridge&lt;br&gt;" style="edgeLabel;html=1;align=center;verticalAlign=middle;resizable=0;points=[];" vertex="1" connectable="0" parent="FMWow-dNWHKe_pAuNeEp-24">
          <mxGeometry x="0.4043" relative="1" as="geometry">
            <mxPoint y="-2" as="offset" />
          </mxGeometry>
        </mxCell>
        <mxCell id="FMWow-dNWHKe_pAuNeEp-2" value="Input Bucket" style="sketch=0;points=[[0,0,0],[0.25,0,0],[0.5,0,0],[0.75,0,0],[1,0,0],[0,1,0],[0.25,1,0],[0.5,1,0],[0.75,1,0],[1,1,0],[0,0.25,0],[0,0.5,0],[0,0.75,0],[1,0.25,0],[1,0.5,0],[1,0.75,0]];outlineConnect=0;fontColor=#232F3E;gradientColor=#60A337;gradientDirection=north;fillColor=#277116;strokeColor=#ffffff;dashed=0;verticalLabelPosition=bottom;verticalAlign=top;align=center;html=1;fontSize=12;fontStyle=0;aspect=fixed;shape=mxgraph.aws4.resourceIcon;resIcon=mxgraph.aws4.s3;" vertex="1" parent="1">
          <mxGeometry x="368" y="72" width="78" height="78" as="geometry" />
        </mxCell>
        <mxCell id="FMWow-dNWHKe_pAuNeEp-26" style="edgeStyle=orthogonalEdgeStyle;rounded=0;orthogonalLoop=1;jettySize=auto;html=1;entryX=0.5;entryY=0;entryDx=0;entryDy=0;entryPerimeter=0;" edge="1" parent="1" source="FMWow-dNWHKe_pAuNeEp-4" target="FMWow-dNWHKe_pAuNeEp-5">
          <mxGeometry relative="1" as="geometry" />
        </mxCell>
        <mxCell id="FMWow-dNWHKe_pAuNeEp-4" value="AWS Step Functions workflow" style="sketch=0;outlineConnect=0;gradientColor=none;html=1;whiteSpace=wrap;fontSize=12;fontStyle=0;shape=mxgraph.aws4.group;grIcon=mxgraph.aws4.group_aws_step_functions_workflow;strokeColor=#545B64;fillColor=none;verticalAlign=top;align=left;spacingLeft=30;fontColor=#545B64;dashed=0;" vertex="1" parent="1">
          <mxGeometry x="277" y="340" width="260" height="210" as="geometry" />
        </mxCell>
        <mxCell id="FMWow-dNWHKe_pAuNeEp-22" style="edgeStyle=orthogonalEdgeStyle;rounded=0;orthogonalLoop=1;jettySize=auto;html=1;entryX=1;entryY=0.5;entryDx=0;entryDy=0;entryPerimeter=0;" edge="1" parent="1" source="FMWow-dNWHKe_pAuNeEp-5" target="FMWow-dNWHKe_pAuNeEp-6">
          <mxGeometry relative="1" as="geometry" />
        </mxCell>
        <mxCell id="FMWow-dNWHKe_pAuNeEp-5" value="Output Bucket" style="sketch=0;points=[[0,0,0],[0.25,0,0],[0.5,0,0],[0.75,0,0],[1,0,0],[0,1,0],[0.25,1,0],[0.5,1,0],[0.75,1,0],[1,1,0],[0,0.25,0],[0,0.5,0],[0,0.75,0],[1,0.25,0],[1,0.5,0],[1,0.75,0]];outlineConnect=0;fontColor=#232F3E;gradientColor=#60A337;gradientDirection=north;fillColor=#277116;strokeColor=#ffffff;dashed=0;verticalLabelPosition=bottom;verticalAlign=top;align=center;html=1;fontSize=12;fontStyle=0;aspect=fixed;shape=mxgraph.aws4.resourceIcon;resIcon=mxgraph.aws4.s3;" vertex="1" parent="1">
          <mxGeometry x="368" y="602" width="78" height="78" as="geometry" />
        </mxCell>
        <mxCell id="FMWow-dNWHKe_pAuNeEp-20" style="edgeStyle=orthogonalEdgeStyle;rounded=0;orthogonalLoop=1;jettySize=auto;html=1;entryX=0.5;entryY=0.5;entryDx=0;entryDy=0;entryPerimeter=0;" edge="1" parent="1" source="FMWow-dNWHKe_pAuNeEp-6" target="FMWow-dNWHKe_pAuNeEp-14">
          <mxGeometry relative="1" as="geometry" />
        </mxCell>
        <mxCell id="FMWow-dNWHKe_pAuNeEp-41" value="Get static webpage" style="edgeLabel;html=1;align=center;verticalAlign=middle;resizable=0;points=[];" vertex="1" connectable="0" parent="FMWow-dNWHKe_pAuNeEp-20">
          <mxGeometry x="0.0741" relative="1" as="geometry">
            <mxPoint x="3" y="9" as="offset" />
          </mxGeometry>
        </mxCell>
        <mxCell id="FMWow-dNWHKe_pAuNeEp-21" style="edgeStyle=orthogonalEdgeStyle;rounded=0;orthogonalLoop=1;jettySize=auto;html=1;exitX=1;exitY=0.5;exitDx=0;exitDy=0;exitPerimeter=0;entryX=0;entryY=0.5;entryDx=0;entryDy=0;entryPerimeter=0;" edge="1" parent="1" source="FMWow-dNWHKe_pAuNeEp-6" target="FMWow-dNWHKe_pAuNeEp-5">
          <mxGeometry relative="1" as="geometry" />
        </mxCell>
        <mxCell id="FMWow-dNWHKe_pAuNeEp-38" value="index.html, collage.png" style="edgeLabel;html=1;align=center;verticalAlign=middle;resizable=0;points=[];" vertex="1" connectable="0" parent="FMWow-dNWHKe_pAuNeEp-21">
          <mxGeometry x="0.0156" y="-2" relative="1" as="geometry">
            <mxPoint y="7" as="offset" />
          </mxGeometry>
        </mxCell>
        <mxCell id="FMWow-dNWHKe_pAuNeEp-6" value="" style="sketch=0;points=[[0,0,0],[0.25,0,0],[0.5,0,0],[0.75,0,0],[1,0,0],[0,1,0],[0.25,1,0],[0.5,1,0],[0.75,1,0],[1,1,0],[0,0.25,0],[0,0.5,0],[0,0.75,0],[1,0.25,0],[1,0.5,0],[1,0.75,0]];outlineConnect=0;fontColor=#232F3E;gradientColor=#945DF2;gradientDirection=north;fillColor=#5A30B5;strokeColor=#ffffff;dashed=0;verticalLabelPosition=bottom;verticalAlign=top;align=center;html=1;fontSize=12;fontStyle=0;aspect=fixed;shape=mxgraph.aws4.resourceIcon;resIcon=mxgraph.aws4.cloudfront;" vertex="1" parent="1">
          <mxGeometry x="70" y="602" width="78" height="78" as="geometry" />
        </mxCell>
        <mxCell id="FMWow-dNWHKe_pAuNeEp-37" style="edgeStyle=orthogonalEdgeStyle;rounded=0;orthogonalLoop=1;jettySize=auto;html=1;" edge="1" parent="1" source="FMWow-dNWHKe_pAuNeEp-7">
          <mxGeometry relative="1" as="geometry">
            <mxPoint x="407" y="472.0000000000001" as="targetPoint" />
          </mxGeometry>
        </mxCell>
        <mxCell id="FMWow-dNWHKe_pAuNeEp-7" value="Analyze Image with Rekognition" style="outlineConnect=0;dashed=0;verticalLabelPosition=bottom;verticalAlign=top;align=center;html=1;shape=mxgraph.aws3.rekognition;fillColor=#2E73B8;gradientColor=none;" vertex="1" parent="1">
          <mxGeometry x="382" y="370" width="50" height="59.5" as="geometry" />
        </mxCell>
        <mxCell id="FMWow-dNWHKe_pAuNeEp-13" value="GetUploadEndpoint()" style="sketch=0;points=[[0,0,0],[0.25,0,0],[0.5,0,0],[0.75,0,0],[1,0,0],[0,1,0],[0.25,1,0],[0.5,1,0],[0.75,1,0],[1,1,0],[0,0.25,0],[0,0.5,0],[0,0.75,0],[1,0.25,0],[1,0.5,0],[1,0.75,0]];outlineConnect=0;fontColor=#232F3E;gradientColor=#F78E04;gradientDirection=north;fillColor=#D05C17;strokeColor=#ffffff;dashed=0;verticalLabelPosition=bottom;verticalAlign=top;align=center;html=1;fontSize=12;fontStyle=0;aspect=fixed;shape=mxgraph.aws4.resourceIcon;resIcon=mxgraph.aws4.lambda;" vertex="1" parent="1">
          <mxGeometry x="70" y="876" width="78" height="78" as="geometry" />
        </mxCell>
        <mxCell id="FMWow-dNWHKe_pAuNeEp-23" style="edgeStyle=orthogonalEdgeStyle;rounded=0;orthogonalLoop=1;jettySize=auto;html=1;entryX=0;entryY=0.5;entryDx=0;entryDy=0;entryPerimeter=0;" edge="1" parent="1" source="FMWow-dNWHKe_pAuNeEp-14" target="FMWow-dNWHKe_pAuNeEp-2">
          <mxGeometry relative="1" as="geometry">
            <Array as="points">
              <mxPoint x="-65" y="111" />
            </Array>
          </mxGeometry>
        </mxCell>
        <mxCell id="FMWow-dNWHKe_pAuNeEp-40" value="Upload image to input bucket" style="edgeLabel;html=1;align=center;verticalAlign=middle;resizable=0;points=[];" vertex="1" connectable="0" parent="FMWow-dNWHKe_pAuNeEp-23">
          <mxGeometry x="0.3266" y="2" relative="1" as="geometry">
            <mxPoint x="6" y="11" as="offset" />
          </mxGeometry>
        </mxCell>
        <mxCell id="FMWow-dNWHKe_pAuNeEp-34" style="edgeStyle=orthogonalEdgeStyle;rounded=0;orthogonalLoop=1;jettySize=auto;html=1;" edge="1" parent="1" source="FMWow-dNWHKe_pAuNeEp-14" target="FMWow-dNWHKe_pAuNeEp-43">
          <mxGeometry relative="1" as="geometry">
            <mxPoint x="70" y="810" as="targetPoint" />
            <Array as="points">
              <mxPoint x="-65" y="777" />
            </Array>
          </mxGeometry>
        </mxCell>
        <mxCell id="FMWow-dNWHKe_pAuNeEp-42" value="Get upload endpoint" style="edgeLabel;html=1;align=center;verticalAlign=middle;resizable=0;points=[];" vertex="1" connectable="0" parent="FMWow-dNWHKe_pAuNeEp-34">
          <mxGeometry x="0.4982" y="-2" relative="1" as="geometry">
            <mxPoint x="-10" y="11" as="offset" />
          </mxGeometry>
        </mxCell>
        <mxCell id="FMWow-dNWHKe_pAuNeEp-14" value="Actor" style="shape=umlActor;verticalLabelPosition=bottom;verticalAlign=top;html=1;outlineConnect=0;" vertex="1" parent="1">
          <mxGeometry x="-80" y="611" width="30" height="60" as="geometry" />
        </mxCell>
        <mxCell id="FMWow-dNWHKe_pAuNeEp-3" value="" style="sketch=0;points=[[0,0,0],[0.25,0,0],[0.5,0,0],[0.75,0,0],[1,0,0],[0,1,0],[0.25,1,0],[0.5,1,0],[0.75,1,0],[1,1,0],[0,0.25,0],[0,0.5,0],[0,0.75,0],[1,0.25,0],[1,0.5,0],[1,0.75,0]];outlineConnect=0;fontColor=#232F3E;gradientColor=#FF4F8B;gradientDirection=north;fillColor=#BC1356;strokeColor=#ffffff;dashed=0;verticalLabelPosition=bottom;verticalAlign=top;align=center;html=1;fontSize=12;fontStyle=0;aspect=fixed;shape=mxgraph.aws4.resourceIcon;resIcon=mxgraph.aws4.step_functions;" vertex="1" parent="1">
          <mxGeometry x="277" y="340" width="30" height="30" as="geometry" />
        </mxCell>
        <mxCell id="FMWow-dNWHKe_pAuNeEp-39" value="GenerateCollage()" style="sketch=0;points=[[0,0,0],[0.25,0,0],[0.5,0,0],[0.75,0,0],[1,0,0],[0,1,0],[0.25,1,0],[0.5,1,0],[0.75,1,0],[1,1,0],[0,0.25,0],[0,0.5,0],[0,0.75,0],[1,0.25,0],[1,0.5,0],[1,0.75,0]];outlineConnect=0;fontColor=#232F3E;gradientColor=#F78E04;gradientDirection=north;fillColor=#D05C17;strokeColor=#ffffff;dashed=0;verticalLabelPosition=bottom;verticalAlign=top;align=center;html=1;fontSize=12;fontStyle=0;aspect=fixed;shape=mxgraph.aws4.resourceIcon;resIcon=mxgraph.aws4.lambda;" vertex="1" parent="1">
          <mxGeometry x="383" y="472" width="48" height="48" as="geometry" />
        </mxCell>
        <mxCell id="FMWow-dNWHKe_pAuNeEp-44" style="edgeStyle=orthogonalEdgeStyle;rounded=0;orthogonalLoop=1;jettySize=auto;html=1;entryX=0.5;entryY=0;entryDx=0;entryDy=0;entryPerimeter=0;" edge="1" parent="1" source="FMWow-dNWHKe_pAuNeEp-43" target="FMWow-dNWHKe_pAuNeEp-13">
          <mxGeometry relative="1" as="geometry" />
        </mxCell>
        <mxCell id="FMWow-dNWHKe_pAuNeEp-43" value="GET /upload-endpoint" style="outlineConnect=0;dashed=0;verticalLabelPosition=bottom;verticalAlign=top;align=center;html=1;shape=mxgraph.aws3.api_gateway;fillColor=#D9A741;gradientColor=none;" vertex="1" parent="1">
          <mxGeometry x="70" y="730" width="76.5" height="93" as="geometry" />
        </mxCell>
      </root>
    </mxGraphModel>
  </diagram>
</mxfile>
